<svg viewBox="0 0 1705.43 1759" version="1.1" xmlns="http://www.w3.org/2000/svg">
  <defs>
    <style>
      .cls-1 {
        fill: #231f20;
      }

      .cls-2 {
        fill: #ea1d25;
      }

      .cls-3 {
        fill: #f69e1e;
      }

      .cls-4 {
        fill: #f26122;
      }
    </style>
  </defs>
  
  <g>
    <g id="Layer_6">
      <g>
        <path d="M1572.64,1447.53v2.97h2.77c.52,0,1.03-.12,1.49-.38.37-.26.58-.69.56-1.14.02-.44-.19-.86-.56-1.11-.45-.27-.96-.4-1.49-.38h-2.77v.03ZM1575.82,1444.93c1.2-.07,2.39.27,3.36.97.79.65,1.23,1.63,1.18,2.65.04.88-.31,1.73-.94,2.33-.75.65-1.69,1.04-2.68,1.12l3.75,4.49h-3.53l-3.25-4h-1.05v4h-2v-11h5.21l-.04-.57ZM1575.07,1460.2c1.27.01,2.52-.24,3.68-.75,1.12-.48,2.14-1.17,3-2.03.86-.86,1.55-1.88,2.03-3,.98-2.38.98-5.05,0-7.42-.49-1.12-1.17-2.13-2.03-3-.86-.86-1.88-1.55-3-2.03-1.17-.48-2.42-.72-3.68-.7-1.28-.01-2.56.23-3.75.7-1.14.47-2.19,1.16-3.07,2.03-2.71,2.78-3.5,6.91-2,10.5.46,1.13,1.14,2.15,2,3,.88.87,1.92,1.56,3.07,2.03,1.18.51,2.46.76,3.75.75M1575.07,1438.53c3.3,0,6.46,1.29,8.81,3.6,1.13,1.11,2.04,2.43,2.65,3.89,1.3,3.03,1.3,6.46,0,9.49-.63,1.45-1.53,2.77-2.65,3.89-1.15,1.1-2.49,1.99-3.95,2.62-1.54.65-3.19.98-4.86.97-1.69.01-3.36-.32-4.92-.97-1.48-.62-2.83-1.51-3.98-2.62-1.12-1.16-2.01-2.53-2.62-4.02-1.3-3.03-1.3-6.46,0-9.49.62-1.46,1.52-2.78,2.65-3.89,1.14-1.14,2.49-2.03,3.98-2.62,1.56-.66,3.23-.99,4.92-.97M426.79,1394.71c0-21.64,14.17-39.41,37.34-39.41s37.08,17.01,37.08,39.41-14.94,39.41-37.08,39.41-37.34-17.77-37.34-39.41M526.64,1394.5v-61h-27v14.98c-8.56-11.07-21.55-18.01-39.22-18.01-34.8,0-62.11,27.03-62.11,64.56s27.3,64.56,62.11,64.56c17.66,0,30.65-6.95,39.22-18.01v14.93h26v-62h1ZM1430.78,1394.71c0-21.64,14.17-39.41,37.35-39.41s37.08,17.01,37.08,39.41-14.92,39.41-37.08,39.41-37.35-17.77-37.35-39.41M1530.64,1394.77v-111.27h-27v64.58c-8.56-11.11-21.53-18.08-39.18-18.08-34.77,0-62.06,27.13-62.06,64.8s27.27,64.8,62.06,64.8c17.65,0,30.63-6.98,39.18-18.08v14.98h27v-61.73ZM858.62,1353.65c17.25,0,28.32,10.81,31.15,29.85h-63.86c2.86-17.77,13.65-29.85,32.72-29.85M859.16,1329.59c-36.07,0-61.31,26.25-61.31,64.64s26.25,64.64,63.1,64.64c18.54,0,35.52-4.63,50.45-17.25l-13.12-19.84c-10.32,8.25-23.46,12.88-35.81,12.88-17.25,0-32.95-7.99-36.81-30.15h91.39c.26-3.33.53-6.69.53-10.29-.27-38.37-24-64.64-58.45-64.64M1182.29,1394.67c0-21.64,14.17-39.41,37.34-39.41s37.08,17.01,37.08,39.41-14.94,39.41-37.08,39.41-37.35-17.77-37.35-39.41M1281.64,1394.67v-61.16h-27v14.98c-8.6-11.07-21.57-18.01-39.24-18.01-34.82,0-62.14,27.03-62.14,64.56s27.31,64.56,62.14,64.56c17.67,0,30.64-6.95,39.24-18.01v14.93h27v-61.84ZM1031.14,1394.67c0,37.34,25.99,64.64,65.66,64.64,18.54,0,30.89-4.12,44.25-14.68l-12.85-21.64c-10.05,7.22-20.6,11.08-32.25,11.08-21.37-.26-37.08-15.71-37.08-39.41s15.71-39.14,37.08-39.41c11.62,0,22.17,3.86,32.25,11.08l12.85-21.64c-13.38-10.55-25.73-14.68-44.25-14.68-39.67,0-65.66,27.29-65.66,64.64M1376.09,1330.03c-15.44,0-25.5,7.22-32.45,18.04v-14.56h-27v123h27v-69.28c0-20.37,8.75-31.68,26.25-31.68,5.73-.08,11.42.97,16.74,3.1l8.25-25.23c-5.92-2.33-13.65-3.36-19.07-3.36M658.76,1342.93c-12.88-8.49-30.62-12.88-50.19-12.88-31.18,0-51.26,14.95-51.26,39.4,0,20.07,14.95,32.45,42.47,36.31l12.64,1.8c14.68,2.06,21.61,5.92,21.61,12.88,0,9.52-9.75,14.95-28.05,14.95s-31.92-5.92-40.94-12.88l-12.58,20.87c14.68,10.81,33.21,15.97,53.29,15.97,35.55,0,56.15-16.74,56.15-40.17,0-21.64-16.21-32.95-43-36.81l-12.61-1.83c-11.59-1.5-20.87-3.83-20.87-12.08,0-9,8.75-14.41,23.44-14.41,15.71,0,30.92,5.92,38.37,10.55l11.59-21.64-.05-.03ZM1004.06,1330.08c-15.44,0-25.5,7.22-32.42,18.04v-14.61h-27v123h27v-69.28c0-20.37,8.75-31.68,26.25-31.68,5.73-.08,11.42.97,16.74,3.1l8.25-25.23c-5.92-2.33-13.65-3.36-19.07-3.36M775.64,1332.5h-44v-37h-27v38h-25v24h25v56.15c0,28.56,11.06,45.57,42.66,45.57,11.59,0,24.94-3.6,33.41-9.52l-7.72-22.92c-7.97,4.63-16.7,6.96-23.65,6.96-13.35,0-17.71-8.25-17.71-20.6v-55.64h44v-25ZM375.64,1456.56v-77.24c0-29.09-18.49-48.66-48.3-48.93-15.67-.26-31.84,4.63-43.16,21.9-8.47-13.65-21.81-21.9-40.58-21.9-13.11,0-25.93,3.86-35.96,18.28v-15.17h-27v122h27v-67.53c-.28-21.37,11.56-32.72,29.86-32.72s26.76,11.59,27.14,32.45v68.8h27v-68.54c-.32-21.37,12.04-32.72,29.8-32.72s27,11.59,27.2,32.45v68.81l27,.06Z" class="cls-1"></path>
        <path d="M1055.64,1124.5h-405.99V395.5h406v729Z" class="cls-4"></path>
        <path d="M675.64,759.58c0-147.86,69.23-279.58,177.04-364.46-81.61-64.35-182.54-99.27-286.46-99.12-256,0-463.52,207.55-463.52,463.58s207.52,463.58,463.52,463.58c103.93.16,204.86-34.77,286.47-99.12-107.8-84.87-177.05-216.59-177.05-364.46" class="cls-2"></path>
        <path d="M1602.73,759.58c0,256.03-207.52,463.58-463.52,463.58-103.94.15-204.89-34.77-286.51-99.12,107.84-84.88,177.07-216.59,177.07-364.46s-69.23-279.58-177.07-364.46c81.62-64.35,182.57-99.27,286.5-99.12,256,0,463.52,207.55,463.52,463.58" class="cls-3"></path>
      </g>
    </g>
  </g>
</svg>