<svg viewBox="0 0 2921.53 1307.49" version="1.1" xmlns="http://www.w3.org/2000/svg">
  <defs>
    <style>
      .cls-1 {
        fill: #243f88;
      }

      .cls-2 {
        fill: #fff;
      }
    </style>
  </defs>
  
  <g>
    <g id="Layer_6">
      <g>
        <path d="M1685.13,485.28c31.73-7.92,59.7-19.38,88.23-21.01,47.68-2.73,80.71,20.47,95.07,65.5,25.18,79,27.52,159.65.92,238.63-24.15,71.69-78.87,90.25-161.24,77.76-2.86-.43-5.67-1.19-12.34-2.62,0,35.14,0,68.85,0,102.55q-.01,30.74-29.99,30.82c-26.79.04-53.64-1.17-80.34.37-21.4,1.23-24.32-9.58-24.27-27.05.37-127.89.19-255.79.19-383.68,0-24.54.49-49.09-.13-73.61-.4-15.64,4.38-23.29,21.69-22.03,18.5,1.35,37.22,1.07,55.78.09,20.04-1.06,38.47.51,46.43,14.29ZM1695.75,750.3c33.26,7.75,48.21,2.09,50.56-27.16,3.76-46.94,1.7-94.41.82-141.63-.25-13.19-10.73-20.1-23.54-16.96-11.95,2.92-28.02,2.4-27.93,22.1.26,54.18.09,108.36.09,163.65Z" class="cls-1"></path>
        <path d="M2568.38,471.21c-8.56,33.12-16.19,62.95-23.99,92.73-26.84,102.49-53.15,205.13-81.1,307.32-6.17,22.57-16.07,44.85-28.14,64.93-18.54,30.82-48.58,46.31-84.26,45.7-32.5-.56-64.9-5.66-97.4-7.9-14.15-.97-19.34-6.97-18.9-21.07.8-25.86.23-51.76.23-81.14,22.53,3.1,42.79,5.48,62.91,8.75,38.98,6.33,57.3-14.78,44.28-52.1-37.85-108.48-75.97-216.88-113.93-325.32-3.15-8.99-5.89-18.12-10.33-31.89h34.59c22.32,0,44.65,0,66.97,0,44.26,0,43.77.08,50.55,44.48,9.6,62.95,20.01,125.77,33.36,188.61,6.28-56.58,12.54-113.17,18.86-169.75,1.24-11.06,2.92-22.07,4.08-33.14q3.15-30.18,34-30.21c34.79,0,69.59,0,108.23,0Z" class="cls-1"></path>
        <path d="M614.3,460.18c-28.88-4.75-53.45-9.98-78.3-12.59-34.75-3.65-55.86,15.23-49.62,44.71,2.24,10.58,10.1,21.5,18.38,28.96,19.3,17.37,40.49,32.63,60.77,48.91,61.24,49.19,79.72,150.72,39.91,218.73-21.39,36.52-56.02,55.18-95.55,57.3-43.99,2.36-88.45-3.65-132.68-6.31-16.94-1.02-22.01-11.62-21.7-27.28.54-26.44.15-52.9.15-81.73,23.48,4.05,43.01,7.4,62.53,10.82,2.92.51,5.73,1.61,8.66,2.06,33.57,5.17,53.39-1.63,62.32-21.27,8.47-18.65,1.19-35.87-25.13-58.51-19.16-16.48-38.42-32.86-57.81-49.06-58.49-48.85-63.96-134.99-39-191.94,20.14-45.94,59.28-70.07,106.26-74.18,39.93-3.5,80.83,3.94,121.28,6.79,14.53,1.02,20.24,9.04,19.76,23.78-.83,25.85-.23,51.75-.23,80.81Z" class="cls-1"></path>
        <path d="M1948.04,580.99c0-30.36-.54-57.77.51-85.11.19-4.86,6.22-12.49,10.89-13.72,57.78-15.12,116.19-26.66,175.96-13.1,51.23,11.62,75.18,41.55,76.69,102.61,2.09,84.71.53,169.51.82,254.26.04,12.06-4.25,17.63-16.89,17.47-26.78-.34-53.78,2.15-80.26-.59-12.17-1.26-23.35-12.11-37.74-20.16-18.5,21.86-46.77,28.75-78.62,26.66-43.34-2.85-72.54-22.63-82.4-64.85-6.26-26.82-8.91-56.25-4.97-83.32,9.06-62.38,51.43-96.92,114.93-99.65,16.2-.7,32.46-.1,47.65-.1,10.92-29.98-4.42-38.91-32.62-36.45-25.75,2.25-51.17,8.31-76.73,12.72-4.28.74-8.54,1.64-17.22,3.31ZM2078.26,659.85c-14.56,8.17-32.09,12.66-33.06,19.51-3.54,24.88-2.67,50.63-.54,75.81.36,4.24,15.05,9.18,23.41,9.8,2.94.22,9.45-11.43,9.72-17.85,1.12-26.54.47-53.16.47-87.27Z" class="cls-1"></path>
        <path d="M686.02,581.74c0-31.04-.43-58.39.43-85.7.14-4.52,5.19-11.77,9.27-12.86,60.54-16.05,121.34-28.18,184.28-12.55,40.32,10.01,66.7,36.12,67.99,75.48,3.21,97.79,1.06,195.76,1.06,297.35-33.79,0-67.09,1.53-100.09-.94-9.79-.73-18.73-12.74-30.36-21.26-20.86,24.54-50.33,30.27-82.87,27.81-48.05-3.64-79.3-33.61-85.52-86.52-2.5-21.2-2.75-43.41.64-64.4,9.37-57.92,52.12-93.19,113.67-96.61,11.87-.66,23.96.73,35.61-1.02,6.41-.96,12.13-6.51,18.16-9.99-5.01-7.93-9.34-22.01-15.16-22.65-19.55-2.17-39.77-.74-59.45,1.6-17.44,2.07-34.51,7.2-57.66,12.27ZM818.39,659.16c-15.37,8.33-29.71,11.19-33.75,19.22-12.36,24.56-12.81,51.74-1.06,76.87,2.81,6.01,15.59,9.54,23.91,9.78,3.47.1,10.12-11.28,10.41-17.66,1.19-26.46.5-53.01.5-88.21Z" class="cls-1"></path>
        <path d="M1528.33,701.28c-54.05,0-102.97-.49-151.87.43-9.31.17-26.35,5.69-26.43,9.09-.39,15.18,5.89,31.53,23.52,32.75,25.58,1.78,51.44-.36,77.17-1.17,5.88-.18,11.7-1.91,17.59-2.67q39.34-5.1,39.6,35.97c.36,58.52.72,61.29-57.06,68.66-38.5,4.91-78.64,4.19-117.24-.57-57.68-7.12-92.77-44.38-107.49-99.39-14.42-53.88-14.24-108.57-2.25-163.14,21.4-97.39,98.09-126.72,179.61-115.89,68.77,9.13,105.5,48.26,116.7,120.98,5.61,36.44,5.42,73.77,8.14,114.94ZM1398.68,626.84c0-21.21,1.81-41.18-.89-60.52-1.09-7.8-12.16-20.01-18.46-19.87-8.33.19-21.43,9.08-23.65,16.78-5.75,19.88-6.66,41.17-9.74,63.61h52.74Z" class="cls-1"></path>
        <path d="M1248.65,425.67c-17.96-2.07-32.47-4.12-47.04-5.35-43.11-3.64-49.91,3.63-44.23,50.06h66.65c-5.71,28.73-10.1,53.91-16.27,78.64-.99,3.96-9.74,7.75-15.29,8.42-10.96,1.32-22.18.39-36.05.39-.42,8.94-1.1,16.74-1.11,24.54-.08,79.5-.56,159,.33,238.48.2,17.96-5.66,23.39-23.04,22.72-29.7-1.14-59.51-1.26-89.19.03-18.13.79-23.08-6.34-22.96-23.31.57-79.49.24-158.99.23-238.48,0-6.63,0-13.26,0-20.78-5.39-1.21-9.51-2.92-13.65-2.94-35.36-.24-30.74,3.97-33.99-32.53-.99-11.06-.64-22.27-.33-33.4.17-5.86,1.59-11.69,2.74-19.48,13.94-.89,27.66-1.77,43.52-2.79,1.41-16.57,2.52-32.59,4.18-48.56,6.06-57.95,39.78-93.28,98.09-95.54,36.69-1.42,73.69,4.99,110.54,7.91,12.91,1.03,17.47,8.12,17.07,20.86-.71,22.79-.2,45.61-.2,71.1Z" class="cls-1"></path>
        <path d="M1695.75,750.3c0-55.29.17-109.47-.09-163.65-.1-19.7,15.98-19.18,27.93-22.1,12.81-3.13,23.3,3.77,23.54,16.96.88,47.22,2.94,94.69-.82,141.63-2.34,29.25-17.3,34.91-50.56,27.16Z" class="cls-2"></path>
        <path d="M2078.26,659.85c0,34.11.65,60.73-.47,87.27-.27,6.42-6.79,18.07-9.72,17.85-8.36-.62-23.05-5.56-23.41-9.8-2.13-25.18-3-50.94.54-75.81.98-6.84,18.5-11.34,33.06-19.51Z" class="cls-2"></path>
        <path d="M818.39,659.16c0,35.2.69,61.75-.5,88.21-.29,6.38-6.94,17.76-10.41,17.66-8.32-.24-21.1-3.77-23.91-9.78-11.75-25.13-11.3-52.31,1.06-76.87,4.04-8.03,18.39-10.89,33.75-19.22Z" class="cls-2"></path>
        <path d="M1398.68,626.84h-52.74c3.08-22.44,3.99-43.72,9.74-63.61,2.23-7.7,15.33-16.6,23.65-16.78,6.3-.14,17.37,12.06,18.46,19.87,2.7,19.34.89,39.31.89,60.52Z" class="cls-2"></path>
      </g>
    </g>
  </g>
</svg>