<svg viewBox="0 0 3168.46 1316.22" version="1.1" xmlns="http://www.w3.org/2000/svg">
  <defs>
    <style>
      .cls-1 {
        fill: #faa61a;
      }

      .cls-2 {
        fill: #0058a0;
      }
    </style>
  </defs>
  
  <g>
    <g id="Layer_6">
      <g>
        <polygon points="1237.58 1007.72 1356.37 310.72 1546.35 310.72 1427.49 1007.72 1237.58 1007.72" class="cls-2"></polygon>
        <path d="M2116.67,327.59c-37.65-14.12-96.64-29.28-170.31-29.28-187.76,0-320.02,94.55-321.14,230.06-1.06,100.17,94.42,156.05,166.5,189.4,73.96,34.17,98.83,55.96,98.47,86.48-.47,46.73-59.06,68.07-113.68,68.07-76.06,0-116.46-10.56-178.86-36.59l-24.49-11.09-26.67,156.07c44.39,19.46,126.46,36.32,211.67,37.19,199.74,0,329.41-93.47,330.88-238.17.72-79.3-49.91-139.66-159.53-189.41-66.42-32.25-107.1-53.77-106.66-86.43,0-28.98,34.43-59.96,108.82-59.96,62.14-.97,107.15,12.59,142.22,26.71l17.03,8.05,25.76-151.1" class="cls-2"></path>
        <path d="M2604.34,310.72h-147.15c-45.51,0-79.56,12.42-99.55,57.84l-282.32,639.16h199.27s32.7-86.1,40.1-105c21.85,0,216.13.3,243.9.3,5.7,24.46,23.17,104.7,23.17,104.7h175.97l-153.8-696.69M2369.62,760.72c15.72-40.17,75.71-194.88,75.71-194.88-1.12,1.85,15.6-40.36,25.2-66.54l12.85,60.11s36.39,166.41,43.99,201.31h-157.73Z" class="cls-2"></path>
        <path d="M1078.18,310.72l-186.03,475.38-19.82-96.61c-34.63-111.37-142.53-232.02-263.16-292.43l170.1,609.66,201.04-.23,299.14-695.77h-201.11" class="cls-2"></path>
        <path d="M719.34,310.72h-306.18l-2.43,14.5c238.38,57.71,396.12,197.16,461.59,364.71l-66.63-320.36c-11.5-44.14-44.86-57.32-86.13-58.86" class="cls-1"></path>
      </g>
    </g>
  </g>
</svg>